<?xml version="1.0" encoding="UTF-8" standalone="no"?>
<svg
   xmlns:dc="http://purl.org/dc/elements/1.1/"
   xmlns:cc="http://creativecommons.org/ns#"
   xmlns:rdf="http://www.w3.org/1999/02/22-rdf-syntax-ns#"
   xmlns:svg="http://www.w3.org/2000/svg"
   xmlns="http://www.w3.org/2000/svg"
   id="svg839"
   version="1.1"
   viewBox="0 0 317.49999 317.50001"
   height="1200"
   width="1200">
  <defs
     id="defs833" />
  <metadata
     id="metadata836">
    <rdf:RDF>
      <cc:Work
         rdf:about="">
        <dc:format>image/svg+xml</dc:format>
        <dc:type
           rdf:resource="http://purl.org/dc/dcmitype/StillImage" />
        <dc:title></dc:title>
      </cc:Work>
    </rdf:RDF>
  </metadata>
  <g
     id="layer1">
    <path
       style="stroke-width:0.658397"
       id="path2"
       fill="#d34a47"
       d="m 216.22476,299.29384 4.54732,-46.78328 12.55604,-13.23362 c 0,0 -28.57766,7.21796 -76.42134,7.21796 -47.84451,0 -75.988977,-7.08449 -75.988977,-7.08449 l 14.071817,14.43593 4.978004,45.4475 c 0,4.87233 26.024566,8.82174 58.128986,8.82174 32.10275,0 58.12815,-3.94941 58.12815,-8.82174 m -14.34414,-218.471185 9.54461,-23.29335 52.85602,-34.33913 -13.93105,-7.32609 -55.9588,36.57974 -11.08216,27.82941 a 742.50322,458.43796 0 0 0 -25.03081,-0.25712 c -58.935046,0 -106.711685,4.14702 -106.711685,9.26147 0,5.11497 47.776639,9.26147 106.711685,9.26147 58.93422,0 106.71001,-4.1465 106.71001,-9.26147 0,-3.76626 -25.91143,-7.00793 -63.10782,-8.45493" />
    <path
       style="stroke-width:0.658397"
       id="path4"
       fill="#ffffff"
       d="m 196.32865,93.867455 c 0,0 -2.06712,0.28608 -8.14781,0.30212 -6.08237,0.0156 -10.40095,-0.0243 -12.12118,-0.99175 -0.46252,-0.25969 -0.71556,-0.77549 -0.71305,-1.1247 0.005,-0.66478 0.7692,-1.05641 1.74285,-1.30163 l 0.92085,0.8919 c -0.40051,0.0853 -0.62926,0.18624 -0.6301,0.29385 -0.004,0.50493 6.21895,0.85051 10.97826,0.81326 4.76016,-0.0362 10.51155,-0.27832 10.51658,-0.77601 0,-0.15055 -0.43488,-0.2923 -1.1915,-0.40404 l 0.91666,-0.8857 c 1.2334,0.23643 2.31011,0.69324 2.3076,1.48374 -0.0117,1.34406 -2.78185,1.5484 -4.57916,1.69896" />
    <path
       style="stroke-width:0.658397"
       id="path6"
       fill="#d34a47"
       d="m 264.17735,23.257945 c 1.32892,-0.94777 -0.68791,-3.37203 -4.50459,-5.41399 -3.81833,-2.04091 -7.99111,-2.92764 -9.32256,-1.97987 -1.32975,0.94777 0.68794,3.37204 4.50629,5.41296 3.81665,2.04143 7.99111,2.92919 9.32086,1.9809 m -50.4948,161.763205 c -1.25268,-7.44146 26.36224,-18.21874 19.27521,-18.56381 -15.25661,0.53855 -22.84973,11.03905 -30.5258,22.03673 -2.81285,4.03062 -12.4379,21.21776 -18.75069,19.10183 -6.31112,-2.11489 8.18217,-16.24817 12.24434,-24.64154 -4.68725,2.12215 -21.87692,10.36806 -26.30694,2.64569 -7.12221,3.73469 -22.34112,5.75803 -20.62425,-4.05234 -3.78901,4.14392 -12.29294,9.92935 -22.50032,7.52527 -13.40485,-3.15632 7.76739,-29.52061 13.03197,-28.19053 5.26541,1.32958 -1.06247,7.33541 -2.71985,9.66759 -3.6449,5.13255 -7.85538,11.58484 -5.04252,12.90564 4.8188,2.26284 17.93205,-8.56048 18.22364,-8.79846 2.45256,-2.00057 9.43987,-15.08882 15.07144,-13.58594 5.63158,1.50289 -14.04668,18.78368 -6.68901,22.21314 1.48393,0.69222 7.55541,-0.4268 11.2489,-2.89401 2.38971,-1.59601 1.56773,-5.131 9.53372,-16.86018 7.96598,-11.72868 15.06557,-26.33534 20.52873,-25.22253 5.46315,1.11229 0.96024,8.60909 -0.99963,11.40377 -9.19687,13.11671 -25.10035,34.78663 -17.60024,33.14615 7.50011,-1.63998 11.40559,-1.7362 18.74985,-7.04258 7.34426,-5.30638 7.00575,-14.0469 11.9008,-13.86117 4.89673,0.18624 4.07474,2.9887 2.88743,5.12273 4.81796,-3.40412 22.838,-10.57345 27.18841,-3.47291 5.15313,8.40629 -25.78156,20.54884 -18.06863,19.92957 7.52022,-0.60372 19.70339,-5.36794 24.90512,-9.69964 l 14.31816,-79.477285 c 0,0 -14.40781,7.361795 -106.06985,7.361795 -91.662877,0 -104.580058,-7.208665 -104.580058,-7.208665 L 64.50236,167.05332 c 6.470321,-11.35412 21.835027,-34.31999 46.0539,-33.54915 11.0168,0.35075 25.72375,13.44832 13.12582,13.89221 -5.33245,0.18728 -5.87374,-6.53766 -12.1882,-7.52528 -4.55654,-0.71289 -10.90034,1.57428 -15.000217,4.05235 -8.176301,4.94062 -25.761462,24.43357 -23.437946,34.15186 2.960328,12.38982 27.691163,-4.30534 31.875673,-9.26199 2.94692,-3.49155 4.93778,-13.83633 11.38297,-12.75094 6.44602,1.08538 -0.56224,11.76126 -5.23441,21.20019 -5.24865,10.59879 -8.00788,21.77907 -14.586287,20.49297 -6.579249,-1.28509 4.137577,-14.96776 3.749627,-17.36513 -6.183747,3.52258 -17.575935,12.44054 -32.150497,8.02658 l 7.570493,45.04914 c 0,0 20.120668,9.81555 80.732374,9.81555 60.6117,0 81.47727,-9.66241 81.47727,-9.66241 l 9.40049,-52.17762 c -7.69115,4.62402 -32.03236,12.83527 -33.59087,3.5795" />
  </g>
</svg>
