<?xml version="1.0" encoding="UTF-8" standalone="no"?>
<svg
   xmlns:dc="http://purl.org/dc/elements/1.1/"
   xmlns:cc="http://creativecommons.org/ns#"
   xmlns:rdf="http://www.w3.org/1999/02/22-rdf-syntax-ns#"
   xmlns:svg="http://www.w3.org/2000/svg"
   xmlns="http://www.w3.org/2000/svg"
   id="svg847"
   version="1.1"
   viewBox="0 0 317.49999 317.50001"
   height="1200"
   width="1200">
  <defs
     id="defs841" />
  <metadata
     id="metadata844">
    <rdf:RDF>
      <cc:Work
         rdf:about="">
        <dc:format>image/svg+xml</dc:format>
        <dc:type
           rdf:resource="http://purl.org/dc/dcmitype/StillImage" />
        <dc:title></dc:title>
      </cc:Work>
    </rdf:RDF>
  </metadata>
  <g
     id="layer1">
    <path
       style="stroke-width:1.0843"
       d="m 300.88166,61.027293 c 0,-19.943077 -16.54608,-36.11018 -36.95663,-36.11018 -18.63682,0 -34.04318,13.481165 -36.58147,31.00625 L 226.9695,55.730437 C 196.74583,42.411119 171.28721,66.002611 171.28721,66.002611 l -67.34155,66.121799 26.60819,25.03737 54.20255,-52.03185 c 25.31053,-24.731901 39.09235,-7.992447 39.09235,-7.992447 19.05365,15.727657 0.65596,34.344927 0.65596,34.344927 l 27.26635,25.67937 c 22.26546,-23.49718 23.55655,-44.00403 16.78849,-60.316903 18.22218,-2.229358 32.32211,-17.409335 32.32211,-35.817584"
       fill="#f9ae41"
       id="path2" />
    <path
       style="stroke-width:1.0843"
       d="m 268.9029,227.0992 c 0.12613,-0.23043 0.19744,-0.36441 0.19744,-0.36441 13.63263,-29.53252 -10.51296,-54.40804 -10.51296,-54.40804 l -67.67281,-65.80133 -25.62317,26.00092 53.25149,52.96003 c 25.31054,24.73189 8.17871,38.19913 8.17871,38.19913 -16.09523,18.61725 -35.14889,0.64095 -35.14889,0.64095 l -26.28131,26.64078 c 24.04686,21.75549 45.0355,23.01701 61.72967,16.40397 2.28161,17.80481 17.8185,31.58288 36.65825,31.58288 20.41056,0 36.95553,-16.1671 36.95553,-36.11018 0,-18.20998 -13.79607,-33.26347 -31.73195,-35.7447"
       fill="#ee4035"
       id="path4" />
    <path
       style="stroke-width:1.0843"
       d="m 191.49044,165.50578 -54.20254,52.03078 c -25.31162,24.73298 -39.093435,7.99459 -39.093435,7.99459 -19.053652,-15.72874 -0.65706,-34.34492 -0.65706,-34.34492 L 70.273243,165.50578 c -22.265458,23.49611 -23.557641,44.00295 -16.790688,60.31582 -18.222179,2.23043 -32.3221,17.40934 -32.3221,35.81866 0,19.94308 16.546073,36.10911 36.957721,36.10911 18.636819,10e-4 34.04318,-13.47903 36.581476,-31.0041 0.236936,0.12326 0.37405,0.19185 0.37405,0.19185 30.224778,13.32254 55.682288,-10.27217 55.682288,-10.27217 l 67.34265,-66.12288 -26.6082,-25.03629"
       fill="#4f91cd"
       id="path6" />
    <path
       style="stroke-width:1.0843"
       d="m 103.50031,137.18119 c -25.311631,-24.7319 -8.18199,-38.199126 -8.18199,-38.199126 16.09852,-18.61726 35.15108,-0.64095 35.15108,-0.64095 L 156.75071,71.701403 C 132.70385,49.945901 111.7163,48.684388 95.021051,55.296348 92.739437,37.490456 77.204734,23.713475 58.361694,23.713475 c -20.407261,0 -36.952237,16.167103 -36.95443,36.110179 0,18.211049 13.796073,33.264541 31.733049,35.744701 -0.126147,0.231511 -0.19635,0.366563 -0.19635,0.366563 -13.634822,29.530372 10.511868,54.404812 10.511868,54.404812 l 67.673919,65.80133 25.62315,-25.99876 -53.25149,-52.96111"
       fill="#7ac043"
       id="path8" />
  </g>
</svg>
